<svg width="1440" height="2130" viewBox="0 0 1440 2130" fill="none" xmlns="http://www.w3.org/2000/svg">
<g opacity="0.5">
<circle cx="670.5" cy="1064.5" r="174" stroke="#C4C4C4" stroke-dasharray="5 5"/>
<circle cx="670.5" cy="1064.5" r="305" stroke="#C4C4C4" stroke-dasharray="5 5"/>
<circle cx="670.5" cy="1064.5" r="504" stroke="#C4C4C4" stroke-dasharray="5 5"/>
<circle cx="670.5" cy="1064.5" r="687" stroke="#C4C4C4" stroke-dasharray="5 5"/>
<circle cx="670.5" cy="1064.5" r="874" stroke="#C4C4C4" stroke-dasharray="5 5"/>
<path d="M1090.64 86.69C1252.08 156.057 1393.83 264.318 1503.25 401.809C1612.66 539.3 1686.33 701.743 1717.68 874.638C1749.02 1047.53 1737.08 1225.5 1682.9 1392.65C1628.72 1559.8 1533.99 1710.94 1407.18 1832.57C1280.37 1954.2 1125.41 2042.54 956.147 2089.7C786.881 2136.86 608.571 2141.38 437.134 2102.85C265.697 2064.32 106.468 1983.94 -26.341 1868.89C-159.15 1753.84 -261.405 1607.69 -323.98 1443.5" stroke="#C4C4C4" stroke-width="0.5" stroke-dasharray="5 5"/>
</g>
</svg>
