<svg width="50" height="50" viewBox="0 0 50 50" fill="none" xmlns="http://www.w3.org/2000/svg">
<circle cx="25" cy="25" r="25" fill="#1D8FCF"/>
<g clip-path="url(#clip0)">
<path d="M25.3379 12.8379C18.4344 12.8379 12.8379 18.4344 12.8379 25.3379C12.8379 32.2414 18.4344 37.8379 25.3379 37.8379C32.2414 37.8379 37.8379 32.2414 37.8379 25.3379C37.8302 18.4377 32.2381 12.8456 25.3379 12.8379ZM25.3379 37.0046C18.8946 37.0046 13.6712 31.7812 13.6712 25.3379C13.6712 18.8946 18.8946 13.6712 25.3379 13.6712C31.7812 13.6712 37.0046 18.8946 37.0046 25.3379C36.9972 31.7781 31.7781 36.9972 25.3379 37.0046Z" fill="#FEFEFE"/>
<path d="M32.8379 25.3379H17.8379C17.6078 25.3379 17.4213 25.5245 17.4213 25.7546C17.4231 28.1962 18.5535 30.4998 20.4838 31.995C20.4991 32.0082 20.5153 32.0204 20.5324 32.0312C23.3653 34.2195 27.3189 34.2177 30.1495 32.0267C30.1691 32.0143 30.1874 32.0003 30.2047 31.985C32.1273 30.4893 33.2528 28.1905 33.2546 25.7546C33.2546 25.5245 33.068 25.3379 32.8379 25.3379ZM21.1784 31.4758C21.2547 29.6899 23.088 28.2546 25.3379 28.2546C27.5879 28.2546 29.4212 29.6899 29.4975 31.4758C27.0219 33.2918 23.654 33.2918 21.1784 31.4758ZM30.2545 30.8453C29.8322 28.9017 27.7905 27.4212 25.3379 27.4212C22.8853 27.4212 20.8437 28.9017 20.4213 30.8453C19.1408 29.6138 18.3714 27.9449 18.2666 26.1712H32.4093C32.3045 27.9449 31.535 29.6138 30.2545 30.8453Z" fill="#FEFEFE"/>
<path d="M21.5878 22.8381C22.7384 22.8381 23.6712 21.9052 23.6712 20.7547C23.6712 19.6042 22.7384 18.6714 21.5878 18.6714C20.4373 18.6714 19.5045 19.6042 19.5045 20.7547C19.5059 21.9048 20.4377 22.8366 21.5878 22.8381ZM21.5878 19.5047C22.2782 19.5047 22.8378 20.0644 22.8378 20.7547C22.8378 21.445 22.2782 22.0047 21.5878 22.0047C20.8975 22.0047 20.3378 21.445 20.3378 20.7547C20.3378 20.0644 20.8975 19.5047 21.5878 19.5047Z" fill="#FEFEFE"/>
<path d="M29.0878 22.8381C30.2384 22.8381 31.1712 21.9052 31.1712 20.7547C31.1712 19.6042 30.2384 18.6714 29.0878 18.6714C27.9373 18.6714 27.0045 19.6042 27.0045 20.7547C27.0059 21.9048 27.9377 22.8366 29.0878 22.8381ZM29.0878 19.5047C29.7782 19.5047 30.3378 20.0644 30.3378 20.7547C30.3378 21.445 29.7782 22.0047 29.0878 22.0047C28.3975 22.0047 27.8378 21.445 27.8378 20.7547C27.8378 20.0644 28.3975 19.5047 29.0878 19.5047Z" fill="#FEFEFE"/>
</g>
<defs>
<clipPath id="clip0">
<rect width="25" height="25" fill="white" transform="translate(12.8379 12.8379)"/>
</clipPath>
</defs>
</svg>
