<svg width="50" height="50" viewBox="0 0 50 50" fill="none" xmlns="http://www.w3.org/2000/svg">
<circle cx="25" cy="25" r="25" fill="#1D8FCF"/>
<g clip-path="url(#clip0)">
<path d="M24.3849 25.4902C24.3848 25.4906 24.3846 25.491 24.3845 25.4913C24.384 25.4926 24.384 25.4928 24.3849 25.4902Z" fill="#FEFEFE"/>
<path d="M31.877 19.7506C31.7086 19.3756 30.9904 18.2004 29.8578 16.4163C29.8193 16.3556 29.8193 16.3556 29.7807 16.2949C29.321 15.5716 28.8285 14.804 28.3361 14.0413C28.1638 13.7743 28.0038 13.5271 27.8602 13.3056C27.7739 13.1727 27.7124 13.0778 27.6795 13.0272C27.6025 12.9091 27.4711 12.8379 27.3301 12.8379H18.9968C18.6122 12.8379 18.433 13.3146 18.7223 13.568C18.742 13.5853 18.776 13.6149 18.82 13.6532C18.8933 13.7169 18.967 13.7807 19.0364 13.8403C19.2551 14.0279 19.3551 14.1108 19.4151 14.1472C20.3068 14.6817 20.9504 15.2218 22.3428 16.5213C23.2752 17.3915 23.6997 17.7703 24.2608 18.2074C24.4631 18.3651 24.6323 18.4861 24.9984 18.7402C25.4206 19.0332 25.602 19.1641 25.8112 19.3332C26.2113 19.6565 26.5431 19.9748 26.7478 20.2774C26.9635 20.5965 26.9581 20.6918 26.739 20.7928C25.5591 21.3367 24.9507 22.0144 24.3591 23.3293C24.2513 23.5688 24.1404 23.8353 24.0022 24.1825C23.9227 24.3824 23.6173 25.1642 23.6086 25.1865C23.2304 26.1503 22.767 27.0215 22.2789 27.7259C22.2723 27.734 22.2654 27.7417 22.2593 27.7505C21.6721 28.5921 21.0683 29.1653 20.5425 29.4001C20.5393 29.4016 20.5361 29.403 20.5329 29.4044C20.5082 29.4153 20.4838 29.4252 20.4594 29.4345C20.4425 29.441 20.4255 29.4474 20.4087 29.4531C20.396 29.4575 20.3833 29.4616 20.3707 29.4655C20.3453 29.4734 20.3199 29.4808 20.2948 29.487C20.287 29.489 20.2793 29.4906 20.2715 29.4923C20.2454 29.4982 20.2195 29.5035 20.1938 29.5075C20.1912 29.5079 20.1884 29.5085 20.1858 29.5089C19.4155 29.6233 18.9688 29.8857 18.8289 30.3766C18.7976 30.4863 18.781 30.5855 18.7803 30.6928C18.7786 30.9286 18.8535 31.2033 19.0166 31.7145C19.1376 32.094 19.1792 32.5905 19.1584 33.1289C19.1566 33.1772 19.1538 33.2261 19.1509 33.2751C19.1503 33.2867 19.1499 33.2981 19.1492 33.3097C19.1262 33.6741 19.0763 34.0534 19.0045 34.4253C18.9896 34.5021 18.9786 34.5827 18.9711 34.6663C18.8595 35.9187 19.5663 37.8379 20.6635 37.8379C21.1889 37.8379 21.5467 37.7239 21.7526 37.4845C21.8616 37.3576 21.9112 37.2178 21.9178 37.0834C21.92 37.0386 21.9175 36.9945 21.9108 36.9516C21.9043 36.9156 21.9043 36.9156 21.898 36.8916C21.8688 36.7945 21.8439 36.6959 21.8227 36.5961C21.7213 36.0996 21.7119 35.6076 21.7839 35.1033C21.8116 34.9093 21.8495 34.7152 21.8975 34.5194C22.0725 33.8073 22.3838 33.0723 22.8415 32.2344C22.9289 32.0745 23.0213 31.911 23.1195 31.743C23.1356 31.7155 23.1521 31.6881 23.1684 31.6606C23.1899 31.6243 23.2112 31.588 23.2332 31.5517C23.2381 31.5436 23.2431 31.5356 23.248 31.5275C23.5201 31.0798 23.8248 30.6325 24.1621 30.1832C24.1675 30.1761 24.1715 30.1683 24.1763 30.1609C24.5029 29.7273 24.8544 29.302 25.2282 28.8878C25.6793 28.3879 26.0591 27.9987 26.9211 27.1378C27.2743 26.785 27.4312 26.6277 27.6241 26.4318C27.6544 26.4011 27.6544 26.4011 27.6847 26.3704L27.7705 26.2833C29.1211 24.9122 29.7642 24.2792 30.5723 23.5517C30.6064 23.521 30.6064 23.521 30.641 23.4899C31.0923 23.0843 31.3119 22.8644 31.5342 22.5631C32.1198 21.7705 32.2719 20.6306 31.877 19.7506ZM22.6136 30.9679C22.6077 30.9775 22.6019 30.9872 22.596 30.9967C22.5671 31.0437 22.5382 31.0905 22.5098 31.1376C22.4727 31.1992 22.436 31.2609 22.3999 31.3226C22.3022 31.4899 22.2096 31.6534 22.1217 31.8138C21.6259 32.7178 21.2845 33.5214 21.0892 34.3166C21.0344 34.5395 20.9909 34.7618 20.9589 34.9854C20.9285 35.1983 20.9104 35.4102 20.9048 35.62C20.9047 35.626 20.9047 35.632 20.9046 35.6381C20.9037 35.674 20.9031 35.7098 20.903 35.7456C20.9018 36.1633 20.951 36.5719 21.0528 36.9636C20.9647 36.989 20.8358 37.0044 20.6635 37.0044C20.4102 37.0044 20.1276 36.4879 19.9559 35.8957C19.953 35.8854 19.9502 35.875 19.9473 35.8646C19.8384 35.4785 19.777 35.0637 19.802 34.7406C19.8063 34.6854 19.8131 34.6329 19.8226 34.5836C19.9305 34.0249 19.9945 33.4543 19.9979 32.9184C20.0013 32.3826 19.9444 31.8814 19.8105 31.4613C19.6679 31.0145 19.6156 30.8075 19.6192 30.6814C19.62 30.6524 19.6239 30.6276 19.6302 30.6052C19.6594 30.5029 19.8262 30.405 20.3081 30.3333C20.354 30.3265 20.4 30.3178 20.4462 30.3074C20.9437 30.1967 21.4502 29.8859 21.9474 29.4113C21.9578 29.4014 21.9682 29.3916 21.9787 29.3815C22.0027 29.3583 22.0267 29.3346 22.0507 29.3105C22.0848 29.2765 22.119 29.2418 22.153 29.2063C22.1537 29.2056 22.1544 29.2048 22.1551 29.2041C22.2964 29.0568 22.4361 28.8972 22.5738 28.7263L23.3233 29.9129C23.0712 30.2599 22.8341 30.6119 22.6136 30.9679ZM30.8638 22.0682C30.6853 22.3102 30.4944 22.5012 30.084 22.8702C30.0495 22.9011 30.0495 22.9011 30.015 22.9322C29.1903 23.6746 28.539 24.3157 27.1768 25.6985L27.091 25.7856C27.0607 25.8164 27.0607 25.8164 27.0304 25.8471C26.8396 26.0409 26.6839 26.1971 26.3392 26.5413C25.46 27.4192 25.0735 27.8155 24.6096 28.3295C24.3503 28.6168 24.1012 28.9095 23.8629 29.2066L23.1015 28.0012C23.5802 27.2765 24.019 26.4221 24.3844 25.4908C24.3929 25.4689 24.698 24.688 24.7765 24.4905C24.9105 24.1537 25.0171 23.8977 25.119 23.6712C25.6332 22.5284 26.1053 22.0025 27.0879 21.5496C27.8662 21.1906 27.9059 20.5024 27.4381 19.8106C27.1742 19.4204 26.7956 19.0573 26.3349 18.685C26.1048 18.4989 25.9123 18.3601 25.4869 18.0648C25.1199 17.8102 24.9592 17.6952 24.773 17.55C24.2378 17.1332 23.8256 16.7653 22.9186 15.9188C21.673 14.7564 21.0016 14.177 20.2259 13.6712H27.1039C27.1215 13.6983 27.1405 13.7276 27.1609 13.759C27.3042 13.98 27.4639 14.2268 27.636 14.4933C28.1274 15.2544 28.6188 16.0204 29.0773 16.7418C29.1157 16.8023 29.1157 16.8023 29.1542 16.8628C30.2476 18.5852 30.9736 19.7733 31.1167 20.0918C31.385 20.6896 31.2753 21.5111 30.8638 22.0682Z" fill="#FEFEFE"/>
</g>
<defs>
<clipPath id="clip0">
<rect width="25" height="25" fill="white" transform="translate(12.8379 12.8379)"/>
</clipPath>
</defs>
</svg>
