<svg width="50" height="50" viewBox="0 0 50 50" fill="none" xmlns="http://www.w3.org/2000/svg">
<circle cx="25" cy="25" r="25" fill="#1D8FCF"/>
<g clip-path="url(#clip0)">
<path d="M32.7453 22.1495V19.5509C32.7453 15.8495 29.4222 12.8379 25.3379 12.8379C21.2536 12.8379 17.9305 15.8495 17.9305 19.5509V22.1495C16.356 22.4208 15.1527 23.793 15.1527 25.4444V34.4916C15.1527 36.3365 16.6541 37.8379 18.4995 37.8379H32.1763C34.0217 37.8379 35.5231 36.3365 35.5231 34.4911V25.4439C35.5231 23.793 34.3198 22.4208 32.7453 22.1495ZM18.8564 19.5509C18.8564 16.3596 21.7638 13.7638 25.3379 13.7638C28.912 13.7638 31.8194 16.3596 31.8194 19.5509V22.0971H18.8564V19.5509ZM34.5972 34.4911C34.5972 35.8259 33.511 36.912 32.1763 36.912H18.4995C17.1647 36.912 16.0786 35.8259 16.0786 34.4911V25.4439C16.0786 24.1092 17.1647 23.0231 18.4995 23.0231H32.1763C33.511 23.0231 34.5972 24.1092 34.5972 25.4439V34.4911Z" fill="#FEFEFE"/>
<path d="M25.3379 25.8008C24.3166 25.8008 23.4861 26.6313 23.4861 27.6526V30.4304C23.4861 31.4517 24.3166 32.2823 25.3379 32.2823C26.3592 32.2823 27.1898 31.4517 27.1898 30.4304V27.6526C27.1898 26.6313 26.3592 25.8008 25.3379 25.8008ZM26.2639 30.4304C26.2639 30.9411 25.8486 31.3563 25.3379 31.3563C24.8273 31.3563 24.412 30.9411 24.412 30.4304V27.6526C24.412 27.142 24.8273 26.7267 25.3379 26.7267C25.8486 26.7267 26.2639 27.142 26.2639 27.6526V30.4304Z" fill="#FEFEFE"/>
</g>
<defs>
<clipPath id="clip0">
<rect width="25" height="25" fill="white" transform="translate(12.8379 12.8379)"/>
</clipPath>
</defs>
</svg>
