<svg width="50" height="50" viewBox="0 0 50 50" fill="none" xmlns="http://www.w3.org/2000/svg">
<circle cx="25" cy="25" r="25" fill="#1D8FCF"/>
<g clip-path="url(#clip0)">
<path d="M34.666 17.7956C32.7698 15.9774 30.874 15.1771 29.0367 15.4177C26.7952 15.7109 25.3497 17.461 24.8761 18.1244C22.771 17.6283 22.3431 15.835 22.3245 15.7516C22.2745 15.5236 22.0504 15.3762 21.8216 15.4279C21.5928 15.4766 21.4471 15.702 21.4963 15.9312C21.5187 16.0363 22.0821 18.512 24.9977 19.0132L25.2811 19.0611L25.431 18.8166C25.445 18.7937 26.8409 16.5556 29.1527 16.257C30.7232 16.0532 32.3805 16.7776 34.0797 18.407C37.4892 21.6762 37.429 25.8796 36.236 28.7235C36.1369 28.9599 36.0285 29.1895 35.9141 29.4136C35.8539 29.3806 35.7878 29.3568 35.7141 29.3568C35.4803 29.3568 35.2905 29.5466 35.2905 29.7805C35.2905 29.9347 35.3773 30.0639 35.5006 30.138C35.304 30.4537 35.0922 30.7553 34.8647 31.0413C34.8588 30.8125 34.6737 30.6278 34.4432 30.6278C34.2093 30.6278 34.0196 30.8176 34.0196 31.0514C34.0196 31.2853 34.2093 31.4751 34.4432 31.4751C34.4656 31.4751 34.4847 31.4657 34.5059 31.4624C34.2191 31.7822 33.9132 32.0788 33.59 32.3516C33.5912 32.3414 33.5963 32.3329 33.5963 32.3223C33.5963 32.0885 33.4065 31.8987 33.1727 31.8987C32.9388 31.8987 32.749 32.0885 32.749 32.3223C32.749 32.5329 32.9054 32.6998 33.107 32.7329C32.8198 32.9438 32.5237 33.1408 32.2153 33.3145C32.1377 33.2272 32.0276 33.1696 31.9018 33.1696C31.6679 33.1696 31.4781 33.3594 31.4781 33.5933C31.4781 33.6217 31.4887 33.6462 31.4942 33.6729C30.3351 34.1902 29.065 34.4558 27.7488 34.4113L27.7124 34.4105L27.6772 34.4156C27.6463 34.4206 24.5541 34.8189 20.9637 32.671L20.643 32.485L20.4121 32.7748C20.4003 32.7896 20.1148 33.1408 19.603 33.1696C19.0857 33.2052 18.4702 32.8782 17.8334 32.2419C17.4111 31.8195 16.8209 31.6941 16.2918 31.9118C15.8898 32.0779 14.9561 32.6994 14.9561 34.8739C14.9561 35.1082 15.1458 35.2976 15.3797 35.2976C15.6135 35.2976 15.8033 35.1082 15.8033 34.8739C15.8033 33.5149 16.2227 32.857 16.6155 32.6943C16.8273 32.6053 17.0531 32.66 17.2336 32.8405C17.8169 33.4238 18.3922 33.7865 18.9569 33.936C19.0251 33.983 19.1031 34.0169 19.1925 34.0169C19.2243 34.0169 19.2522 34.0055 19.2819 33.9991C19.4128 34.0144 19.5433 34.0224 19.6729 34.0144C20.1906 33.9792 20.5736 33.753 20.8087 33.5623C23.4581 35.0692 25.7933 35.3001 26.9773 35.3001C27.3853 35.3001 27.6569 35.2726 27.7568 35.2603C31.7505 35.3501 35.3892 32.9324 37.0172 29.0518C38.6788 25.092 37.7777 20.7789 34.666 17.7956Z" fill="#FEFEFE"/>
<path d="M15.5513 29.8201C17.2116 28.8318 19.5691 29.8146 20.2449 30.1349C20.2737 30.1527 20.3029 30.1679 20.3359 30.1785C20.3948 30.2078 20.4346 30.2281 20.4376 30.2298L20.7392 30.3933L20.9617 30.1328C22.2008 28.6831 24.0987 29.2813 24.1771 29.3063L24.669 29.4706L24.7317 28.9559C24.8744 27.7858 26.5249 27.1546 26.5419 27.1482L26.8181 27.0449V24.1582L26.5821 24.0417C25.4061 23.46 25.3358 21.9158 25.3349 21.9018L25.3243 21.5604L24.9888 21.4981C20.0318 20.5788 19.3192 17.1126 19.2912 16.9651C19.2485 16.7364 19.0294 16.5813 18.799 16.6258C18.5689 16.6677 18.416 16.888 18.4579 17.1181C18.4884 17.2854 19.2501 21.1503 24.5232 22.2687C24.6109 22.8474 24.9159 24.0154 25.9708 24.6695V26.4725C25.4531 26.717 24.3644 27.3406 23.9979 28.3933C23.2544 28.2569 21.7361 28.1679 20.5456 29.3376C19.6755 28.9309 17.0972 27.9159 15.1205 29.0898C13.606 29.99 12.8379 31.9362 12.8379 34.8742C12.8379 35.1085 13.0277 35.2978 13.2615 35.2978C13.4954 35.2978 13.6852 35.1085 13.6852 34.8742C13.6852 32.2578 14.313 30.5573 15.5513 29.8201Z" fill="#FEFEFE"/>
<path d="M31.9018 28.9332C32.1358 28.9332 32.3254 28.7436 32.3254 28.5096C32.3254 28.2756 32.1358 28.0859 31.9018 28.0859C31.6678 28.0859 31.4781 28.2756 31.4781 28.5096C31.4781 28.7436 31.6678 28.9332 31.9018 28.9332Z" fill="#FEFEFE"/>
<path d="M34.4437 28.9332C34.6776 28.9332 34.8673 28.7436 34.8673 28.5096C34.8673 28.2756 34.6776 28.0859 34.4437 28.0859C34.2097 28.0859 34.02 28.2756 34.02 28.5096C34.02 28.7436 34.2097 28.9332 34.4437 28.9332Z" fill="#FEFEFE"/>
<path d="M35.7147 27.6622C35.9486 27.6622 36.1383 27.4726 36.1383 27.2386C36.1383 27.0046 35.9486 26.8149 35.7147 26.8149C35.4807 26.8149 35.291 27.0046 35.291 27.2386C35.291 27.4726 35.4807 27.6622 35.7147 27.6622Z" fill="#FEFEFE"/>
<path d="M23.0053 30.2042C23.2393 30.2042 23.429 30.0145 23.429 29.7806C23.429 29.5466 23.2393 29.3569 23.0053 29.3569C22.7713 29.3569 22.5817 29.5466 22.5817 29.7806C22.5817 30.0145 22.7713 30.2042 23.0053 30.2042Z" fill="#FEFEFE"/>
<path d="M25.5472 30.2042C25.7811 30.2042 25.9708 30.0145 25.9708 29.7806C25.9708 29.5466 25.7811 29.3569 25.5472 29.3569C25.3132 29.3569 25.1235 29.5466 25.1235 29.7806C25.1235 30.0145 25.3132 30.2042 25.5472 30.2042Z" fill="#FEFEFE"/>
<path d="M28.089 30.2042C28.323 30.2042 28.5127 30.0145 28.5127 29.7806C28.5127 29.5466 28.323 29.3569 28.089 29.3569C27.8551 29.3569 27.6654 29.5466 27.6654 29.7806C27.6654 30.0145 27.8551 30.2042 28.089 30.2042Z" fill="#FEFEFE"/>
<path d="M30.6309 30.2042C30.8649 30.2042 31.0546 30.0145 31.0546 29.7806C31.0546 29.5466 30.8649 29.3569 30.6309 29.3569C30.3969 29.3569 30.2073 29.5466 30.2073 29.7806C30.2073 30.0145 30.3969 30.2042 30.6309 30.2042Z" fill="#FEFEFE"/>
<path d="M33.1728 30.2042C33.4068 30.2042 33.5964 30.0145 33.5964 29.7806C33.5964 29.5466 33.4068 29.3569 33.1728 29.3569C32.9388 29.3569 32.7491 29.5466 32.7491 29.7806C32.7491 30.0145 32.9388 30.2042 33.1728 30.2042Z" fill="#FEFEFE"/>
<path d="M19.1926 31.4752C19.4265 31.4752 19.6162 31.2855 19.6162 31.0516C19.6162 30.8176 19.4265 30.6279 19.1926 30.6279C18.9586 30.6279 18.7689 30.8176 18.7689 31.0516C18.7689 31.2855 18.9586 31.4752 19.1926 31.4752Z" fill="#FEFEFE"/>
<path d="M21.7344 31.4752C21.9684 31.4752 22.1581 31.2855 22.1581 31.0516C22.1581 30.8176 21.9684 30.6279 21.7344 30.6279C21.5005 30.6279 21.3108 30.8176 21.3108 31.0516C21.3108 31.2855 21.5005 31.4752 21.7344 31.4752Z" fill="#FEFEFE"/>
<path d="M23.0053 32.7462C23.2393 32.7462 23.429 32.5565 23.429 32.3226C23.429 32.0886 23.2393 31.8989 23.0053 31.8989C22.7713 31.8989 22.5817 32.0886 22.5817 32.3226C22.5817 32.5565 22.7713 32.7462 23.0053 32.7462Z" fill="#FEFEFE"/>
<path d="M24.2763 31.4752C24.5103 31.4752 24.6999 31.2855 24.6999 31.0516C24.6999 30.8176 24.5103 30.6279 24.2763 30.6279C24.0423 30.6279 23.8527 30.8176 23.8527 31.0516C23.8527 31.2855 24.0423 31.4752 24.2763 31.4752Z" fill="#FEFEFE"/>
<path d="M26.8181 31.4752C27.052 31.4752 27.2417 31.2855 27.2417 31.0516C27.2417 30.8176 27.052 30.6279 26.8181 30.6279C26.5841 30.6279 26.3944 30.8176 26.3944 31.0516C26.3944 31.2855 26.5841 31.4752 26.8181 31.4752Z" fill="#FEFEFE"/>
<path d="M24.2763 34.0167C24.5103 34.0167 24.6999 33.827 24.6999 33.5931C24.6999 33.3591 24.5103 33.1694 24.2763 33.1694C24.0423 33.1694 23.8527 33.3591 23.8527 33.5931C23.8527 33.827 24.0423 34.0167 24.2763 34.0167Z" fill="#FEFEFE"/>
<path d="M26.8181 34.0167C27.052 34.0167 27.2417 33.827 27.2417 33.5931C27.2417 33.3591 27.052 33.1694 26.8181 33.1694C26.5841 33.1694 26.3944 33.3591 26.3944 33.5931C26.3944 33.827 26.5841 34.0167 26.8181 34.0167Z" fill="#FEFEFE"/>
<path d="M25.5472 32.7462C25.7811 32.7462 25.9708 32.5565 25.9708 32.3226C25.9708 32.0886 25.7811 31.8989 25.5472 31.8989C25.3132 31.8989 25.1235 32.0886 25.1235 32.3226C25.1235 32.5565 25.3132 32.7462 25.5472 32.7462Z" fill="#FEFEFE"/>
<path d="M28.089 32.7462C28.323 32.7462 28.5127 32.5565 28.5127 32.3226C28.5127 32.0886 28.323 31.8989 28.089 31.8989C27.8551 31.8989 27.6654 32.0886 27.6654 32.3226C27.6654 32.5565 27.8551 32.7462 28.089 32.7462Z" fill="#FEFEFE"/>
<path d="M29.3599 31.4752C29.5939 31.4752 29.7836 31.2855 29.7836 31.0516C29.7836 30.8176 29.5939 30.6279 29.3599 30.6279C29.126 30.6279 28.9363 30.8176 28.9363 31.0516C28.9363 31.2855 29.126 31.4752 29.3599 31.4752Z" fill="#FEFEFE"/>
<path d="M31.9018 31.4752C32.1358 31.4752 32.3254 31.2855 32.3254 31.0516C32.3254 30.8176 32.1358 30.6279 31.9018 30.6279C31.6678 30.6279 31.4781 30.8176 31.4781 31.0516C31.4781 31.2855 31.6678 31.4752 31.9018 31.4752Z" fill="#FEFEFE"/>
<path d="M29.3599 34.0167C29.5939 34.0167 29.7836 33.827 29.7836 33.5931C29.7836 33.3591 29.5939 33.1694 29.3599 33.1694C29.126 33.1694 28.9363 33.3591 28.9363 33.5931C28.9363 33.827 29.126 34.0167 29.3599 34.0167Z" fill="#FEFEFE"/>
<path d="M30.6309 32.7462C30.8649 32.7462 31.0546 32.5565 31.0546 32.3226C31.0546 32.0886 30.8649 31.8989 30.6309 31.8989C30.3969 31.8989 30.2073 32.0886 30.2073 32.3226C30.2073 32.5565 30.3969 32.7462 30.6309 32.7462Z" fill="#FEFEFE"/>
</g>
<defs>
<clipPath id="clip0">
<rect width="25" height="25" fill="white" transform="translate(12.8379 12.8379)"/>
</clipPath>
</defs>
</svg>
