<svg width="20" height="20" viewBox="0 0 20 20" fill="none" xmlns="http://www.w3.org/2000/svg">
<path d="M14.3829 5.65192L7.53475 13.221L5.37537 10.8344C5.14412 10.5782 4.7485 10.5591 4.49287 10.79C4.23725 11.0216 4.21693 11.4169 4.44881 11.6729L6.96381 14.4522C7.07881 14.6197 7.26975 14.7179 7.47225 14.7179C7.49506 14.7179 7.51787 14.7085 7.541 14.7057C7.55693 14.7069 7.57225 14.7157 7.58787 14.7157C7.77287 14.7157 7.95225 14.6325 8.07381 14.4891L15.3094 6.49067C15.5413 6.23442 15.5213 5.83911 15.2654 5.60755C15.0097 5.37599 14.6144 5.39505 14.3829 5.65192Z" fill="#18E913"/>
<path d="M9.99937 0C4.48563 0 0 4.48594 0 10C0 15.5141 4.48563 20 9.99937 20C15.5141 20 20 15.5141 20 10C20 4.48594 15.5141 0 9.99937 0ZM9.99937 18.75C5.17531 18.75 1.25 14.8247 1.25 10C1.25 5.17531 5.17531 1.25 9.99937 1.25C14.8244 1.25 18.75 5.17531 18.75 10C18.75 14.8247 14.8244 18.75 9.99937 18.75Z" fill="#18E913"/>
</svg>
